PathFileType	4	(X/Y/Z)	Run_200 01
DataRate	CameraRate	NumFrames	NumMarkers	Units	OrigDataRate	OrigDataStartFrame	OrigNumFrames
120	120	7	42	mm	120	38	128
Frame#	Time	LASI			RASI			LPSI			RPSI			RTH1			RTH2			RTH3			LTH1			LTH2			LTH3			RTB1			RTB2			RTB3			LTB1			LTB2			LTB3			RCAL			RTOE			RMT5			LCAL			LTOE			LMT5			LACR			RACR			CLAV			C7			RUA1			RUA2			RUA3			RLEL			LUA1			LUA2			LUA3			LLEL			RFAsuperior			RFAradius			RFAulna			LFAsuperior			LFAradius			LFAulna			LMEL			RMEL			
		X1	Y1	Z1	X2	Y2	Z2	X3	Y3	Z3	X4	Y4	Z4	X5	Y5	Z5	X6	Y6	Z6	X7	Y7	Z7	X8	Y8	Z8	X9	Y9	Z9	X10	Y10	Z10	X11	Y11	Z11	X12	Y12	Z12	X13	Y13	Z13	X14	Y14	Z14	X15	Y15	Z15	X16	Y16	Z16	X17	Y17	Z17	X18	Y18	Z18	X19	Y19	Z19	X20	Y20	Z20	X21	Y21	Z21	X22	Y22	Z22	X23	Y23	Z23	X24	Y24	Z24	X25	Y25	Z25	X26	Y26	Z26	X27	Y27	Z27	X28	Y28	Z28	X29	Y29	Z29	X30	Y30	Z30	X31	Y31	Z31	X32	Y32	Z32	X33	Y33	Z33	X34	Y34	Z34	X35	Y35	Z35	X36	Y36	Z36	X37	Y37	Z37	X38	Y38	Z38	X39	Y39	Z39	X40	Y40	Z40	X41	Y41	Z41	X42	Y42	Z42	

35	0.45	1079.24074	1052.192455	-422.584723	1060.189605	1041.85421	-185.536334	907.333406	1088.409744	-371.292074	903.0824270000001	1085.372654	-273.558682	972.617577	887.7806409999999	-141.545179	1011.842122	734.634199	-173.148828	929.178805	656.200822	-185.422184	1063.145068	892.385546	-491.51022	1170.102097	830.304214	-472.370655	1145.534436	687.411153	-456.403583	902.915588	416.117791	-249.200587	825.135834	390.38422	-195.528549	800.83865	267.056814	-257.037454	1230.547729	464.047905	-401.787003	1169.250223	376.965171	-449.817704	1169.425798	276.828109	-384.526031	628.271835	205.018452	-285.845633	796.211863	83.45858200000001	-315.759136	765.8598940000001	55.76555	-211.752354	1027.522735	182.485112	-372.642962	1220.87534	115.682368	-329.972365	1205.772743	77.67338599999999	-431.013007	1025.788832	1535.710928	-487.195242	1063.212511	1519.551601	-129.480168	1116.104982	1476.391636	-296.629778	1005.539799	1560.176306	-313.684771	1042.505226	1435.651179	-82.6528	1047.444182	1344.371632	-97.246717	963.145795	1347.926841	-65.125061	943.16237	1233.826717	-41.249006	965.166125	1489.946284	-532.435436	899.012974	1459.532463	-488.547668	910.881196	1398.051086	-550.535521	799.116988	1339.615675	-560.803521	1038.377839	1218.776295	-56.416689	1183.910435	1149.162142	-137.813558	1154.444468	1089.276695	-124.867383	861.982344	1287.116176	-573.656119	1001.730071	1154.026693	-524.031418	947.6183579999999	1116.532881	-541.962678	789.188684	1341.728612	-487.676213	919.941578	1232.563754	-107.375964	
36	0.458333	1079.457453	1056.540305	-422.323442	1060.45844	1046.183809	-185.572404	907.9252320000001	1093.031966	-371.04558	903.792896	1089.577575	-273.475308	972.3427799999999	892.1393399999999	-141.18818	1010.406054	738.435763	-173.160108	927.463914	660.865164	-185.969581	1061.550891	895.885317	-491.082304	1166.70368	831.389663	-473.461574	1140.66143	689.312843	-457.099725	898.671332	420.710826	-249.075671	820.304023	396.353615	-195.363949	794.6020559999999	273.029453	-256.712006	1231.656572	465.361916	-401.426496	1176.780978	374.592268	-449.541485	1181.579376	274.949806	-383.744315	622.6773470000001	217.087377	-286.043929	783.806202	86.36144	-315.27308	751.47759	59.653205	-211.89783	1045.178161	173.819437	-373.002007	1241.033239	116.64005	-327.664793	1228.521617	76.34650499999999	-429.194467	1026.918873	1539.147519	-488.514655	1063.480429	1524.498884	-131.579893	1116.180701	1480.07233	-297.943712	1005.855381	1563.833162	-315.360843	1042.79668	1441.58269	-84.085577	1047.715381	1350.204907	-97.39762500000001	963.141741	1354.327981	-66.017821	943.152226	1240.085901	-40.780142	965.982772	1494.925057	-533.960606	900.2829850000001	1464.448166	-489.352054	910.830687	1403.227293	-552.0255	798.754249	1345.025594	-561.742069	1038.21587	1225.203447	-56.924544	1183.188378	1156.3174	-139.851936	1154.371544	1096.234872	-126.655426	861.453923	1292.655794	-574.812492	1001.933889	1160.08783	-525.722041	948.080027	1122.107539	-543.173413	789.326039	1347.326793	-488.609459	919.803231	1238.890242	-107.034897	
37	0.466667	1079.523658	1059.995462	-421.973758	1060.712741	1049.994478	-185.348939	908.638243	1096.792361	-370.993894	904.488769	1093.288307	-273.444872	972.1914410000001	896.016185	-140.932145	1009.833783	741.699608	-173.172127	927.167689	664.771314	-186.668867	1059.484649	897.973053	-490.460341	1163.001087	831.316066	-474.439204	1135.652292	690.056187	-457.26013	895.7251670000001	424.692125	-249.389256	816.850004	401.888491	-195.42311	789.175035	278.753295	-256.746783	1231.911324	466.068118	-400.995972	1182.89387	372.47806	-449.094379	1192.236503	273.481819	-382.991653	617.853038	229.140593	-286.466989	771.920518	89.791866	-314.826876	737.435883	64.166156	-212.297329	1061.256786	166.026448	-372.927733	1259.300419	118.471832	-326.101651	1249.103017	75.93490799999999	-427.335907	1028.106019	1541.800333	-490.058599	1063.421952	1528.65214	-133.74613	1116.203743	1483.047319	-299.268635	1006.030835	1566.726722	-317.184135	1042.524177	1446.729215	-85.633486	1047.62526	1355.43703	-97.494564	962.612447	1359.909276	-67.25990299999999	942.523771	1245.563164	-40.735759	966.949927	1498.923401	-535.737032	901.575156	1468.406702	-490.531203	911.085898	1407.424847	-553.689858	798.716418	1349.413572	-563.001177	1037.375171	1230.222291	-57.40776	1181.850679	1161.483714	-141.273261	1153.201602	1101.390173	-128.091461	861.340659	1297.208609	-576.140856	1002.542183	1165.250111	-527.410491	948.9549909999999	1126.784939	-544.361331	789.653746	1351.890401	-489.876376	919.083765	1244.441501	-107.125875	
38	0.475	1079.479644	1062.56129	-421.544816	1060.927606	1053.211457	-185.02739	909.323335	1099.589585	-371.140842	904.989059	1096.521595	-273.517639	972.285997	899.329523	-140.811353	1010.242451	744.29543	-173.300615	928.292502	667.756216	-187.476466	1056.872986	898.814162	-489.821364	1159.374739	830.381963	-475.149383	1130.581095	689.621697	-456.790929	894.1271400000001	427.916277	-250.128595	814.762601	406.862141	-195.788117	784.601108	284.112217	-257.053883	1231.360312	466.182179	-400.436027	1187.272469	370.672993	-448.57666	1201.217172	272.411275	-382.383224	613.818094	240.985158	-287.034344	760.530952	93.552739	-314.500219	723.861569	69.13633	-212.979509	1075.375947	159.293549	-372.327171	1275.272874	120.670856	-324.907244	1266.841426	75.915086	-425.260362	1029.352704	1543.615158	-491.830116	1063.067939	1531.930791	-135.928768	1116.187142	1485.29307	-300.62312	1006.14839	1568.877012	-319.138308	1041.661263	1451.023801	-87.229016	1047.074545	1359.997317	-97.570367	961.537507	1364.595008	-68.79223500000001	941.239679	1250.197513	-41.102377	968.039986	1501.849533	-537.764363	902.840773	1471.384208	-492.129114	911.639157	1410.576826	-555.512972	798.983748	1352.724871	-564.611285	1035.827826	1233.798803	-57.843975	1179.905575	1164.663016	-142.082919	1150.946202	1104.733095	-129.117143	861.6330809999999	1300.71132	-577.690068	1003.549648	1169.501507	-529.04587	950.238021	1130.552643	-545.520687	790.132921	1355.381424	-491.481593	917.714874	1249.154198	-107.624401	
39	0.483333	1079.462876	1064.246505	-421.054871	1061.090625	1055.752552	-184.817427	909.768416	1101.381832	-371.395487	905.100812	1099.139765	-273.672409	972.8296769999999	901.903815	-140.831035	1011.722293	746.078016	-173.745165	930.737104	669.643385	-188.3527	1053.752621	898.632345	-489.301287	1156.204747	828.809827	-475.525881	1125.653177	688.199643	-456.054066	893.895397	430.213158	-251.21797	814.025484	411.146033	-196.484495	780.887265	288.989115	-257.552338	1230.175291	465.785455	-399.700162	1189.908564	369.162813	-448.064258	1208.426109	271.657864	-381.923554	610.555346	252.499373	-287.612457	749.574174	97.507656	-314.303684	710.938888	74.468479	-213.844874	1087.16953	153.881118	-371.226663	1288.53805	122.673745	-323.829326	1281.16462	75.965433	-423.35158	1030.661172	1544.541229	-493.790518	1062.491693	1534.297762	-138.072085	1116.145109	1486.79146	-302.006941	1006.294109	1570.332083	-321.198926	1040.273579	1454.41509	-88.83543899999999	1046.015912	1363.795277	-97.61076300000001	959.943453	1368.354857	-70.527415	939.290582	1253.977981	-41.83372	969.251882	1503.644757	-540.023224	904.081213	1473.317454	-494.117169	912.47465	1412.621103	-557.495839	799.53928	1354.914224	-566.58032	1033.577609	1235.980476	-58.192678	1177.341058	1165.889718	-142.303794	1147.626327	1106.29812	-129.665569	862.312949	1303.129141	-579.4839449999999	1004.955476	1172.832377	-530.5481119999999	951.924984	1133.392504	-546.639285	790.725675	1357.766156	-493.439392	915.662705	1253.012707	-108.480351	
40	0.491667	1079.616379	1065.072017	-420.552077	1061.209083	1057.533547	-184.805908	909.836305	1102.161911	-371.621327	904.76597	1100.870746	-273.794602	974.019551	903.473869	-140.982007	1014.293417	746.94239	-174.68259	934.370365	670.2730330000001	-189.273577	1050.393082	897.666165	-488.926267	1153.698584	826.691727	-475.616369	1121.101741	686.117496	-455.467906	894.97684	431.45071	-252.542149	814.615001	414.63497	-197.45785	778.005438	293.313764	-258.181675	1228.613384	465.027929	-398.789656	1191.093553	367.85272	-447.54488	1213.785676	271.065234	-381.46685	608.01522	263.637078	-288.064593	739.0253259999999	101.6229	-314.205779	698.859205	80.157359	-214.712619	1096.259888	149.921331	-369.732314	1298.649189	123.940132	-322.906211	1291.689521	75.905828	-422.036055	1032.02435	1544.542578	-495.878626	1061.796921	1535.751585	-140.141976	1116.090657	1487.527023	-303.402839	1006.524379	1571.119304	-323.338016	1038.528507	1456.856932	-90.440095	1044.473101	1366.721607	-97.574451	957.9111799999999	1371.194386	-72.386803	936.691636	1256.933667	-42.868852	970.605502	1504.259741	-542.481184	905.317848	1474.155725	-496.436024	913.569316	1413.504907	-559.655289	800.374969	1355.945301	-568.898462	1030.650818	1236.889213	-58.436866	1174.112699	1165.21788	-141.958125	1143.279669	1106.15003	-129.668549	863.353884	1304.447608	-581.51402	1006.756777	1175.230269	-531.849138	954.011772	1135.281433	-547.719879	791.405053	1359.005027	-495.774765	912.939643	1256.044007	-109.636702	
41	0.5	1079.927862	1065.09475	-420.133253	1061.314038	1058.484463	-184.886312	909.537963	1101.937636	-371.703234	904.096111	1101.445701	-273.724982	975.961061	903.773857	-141.24813	1017.896861	746.876741	-176.148573	939.098388	669.563622	-190.233562	1047.292702	896.181377	-488.678117	1151.793695	824.015609	-475.548073	1117.046703	683.666681	-455.108514	897.229925	431.613376	-253.992635	816.470582	417.289155	-198.575344	775.901784	297.11088	-258.89407	1226.909254	464.053524	-397.771292	1191.224064	366.564059	-446.904551	1217.172505	270.401939	-380.782347	606.11674	274.388535	-288.294215	729.003554	105.989557	-314.183367	687.830255	86.25027900000001	-215.420912	1102.282945	147.243199	-367.972499	1305.197173	124.057001	-322.343076	1298.266717	75.511505	-421.238905	1033.422772	1543.612135	-498.03468	1061.092499	1536.307479	-142.124946	1116.032514	1487.48351	-304.786125	1006.851264	1571.22816	-325.520342	1036.648116	1458.302843	-92.038077	1042.520597	1368.655862	-97.465514	955.542584	1373.128872	-74.35149699999999	933.48117	1259.110123	-44.144546	972.11954	1503.651897	-545.0987689999999	906.565217	1473.909371	-499.04682	914.893716	1413.195913	-562.00539	801.487525	1355.79299	-571.552354	1027.085559	1236.695002	-58.602465	1170.14303	1162.718272	-141.065247	1137.946922	1104.371343	-129.082933	864.728848	1304.656509	-583.75732	1008.935872	1176.683573	-532.954163	956.490507	1136.199491	-548.784007	792.1632080000001	1359.058728	-498.503787	909.600575	1258.294809	-111.037082	
